#!OML:ASF I:\Actors\actors\Patient Classification 2\Patient 1\Session 1\actor1.ASF
:FULLY-SPECIFIED
:DEGREES
398
root -0.0975735 18.9064 6.18633 14.4233 -5.71743 4.33126
lowerback 24.9419 -3.44293 13.388
upperback -2.56046 0.72806 7.03106
thorax -16.3517 -0.488995 0.229467
lowerneck -21.7493 2.42404 3.37199
upperneck 1.37619 2.80476 -6.46842
head 3.96508 0.989359 -2.31111
rclavicle -2.8625e-014 1.04958e-013
rhumerus -33.5888 -43.8011 0.426696
rradius 40.9744
rwrist 16.5205
rhand -11.6857 -47.0009
rfingers 7.12502
rthumb 14.3598 -76.4843
lclavicle -2.8625e-014 1.04958e-013
lhumerus -18.5221 61.9825 7.11894
lradius 36.0255
lwrist -28.0157
lhand -1.13426 -18.4142
lfingers 7.12502
lthumb 24.5035 10.0382
rfemur -6.71592 2.81439 5.58533
rtibia -6.36111e-015
rfoot -17.3316 -12.2093
rtoes -1.01969
lfemur -18.6218 9.13985 -21.912
ltibia 20.7636
lfoot -14.7198 -0.335331
ltoes -54.074
399
root -0.111696 18.9061 6.18915 14.3805 -6.17374 4.29244
lowerback 24.9178 -3.48038 13.2508
upperback -2.49998 0.608335 6.95302
thorax -16.2772 -0.529239 0.255613
lowerneck -21.8778 2.52662 3.51324
upperneck 1.2146 2.91407 -6.76802
head 3.94797 1.02398 -2.41785
rclavicle 4.77083e-015 2.22639e-014
rhumerus -33.5538 -43.7025 0.445993
rradius 41.0458
rwrist 16.3523
rhand -11.5886 -47.1401
rfingers 7.12502
rthumb 14.4534 -76.6168
lclavicle 4.77083e-015 2.22639e-014
lhumerus -18.0807 62.0612 7.49806
lradius 35.9704
lwrist -28.0278
lhand -1.05966 -18.7245
lfingers 7.12502
lthumb 24.575 9.71822
rfemur -6.82446 3.27354 5.5712
rtibia 2.06736e-014
rfoot -17.2975 -12.2933
rtoes -1.72168
lfemur -18.4229 8.94348 -21.8231
ltibia 20.6348
lfoot -14.9345 0.30466
ltoes -54.1018
400
root -0.127819 18.9055 6.19249 14.3057 -6.56405 4.2288
lowerback 24.9432 -3.55106 13.1167
upperback -2.49184 0.462098 6.86431
thorax -16.2936 -0.58669 0.2825
lowerneck -21.8341 2.68664 3.67044
upperneck 1.04713 3.10004 -7.07191
head 3.90918 1.10011 -2.52128
rclavicle -2.38542e-014 -4.13472e-014
rhumerus -33.4319 -43.5987 0.477904
rradius 41.0323
rwrist 16.337
rhand -11.3339 -47.1116
rfingers 7.12502
rthumb 14.6988 -76.5705
lclavicle -2.38542e-014 -4.13472e-014
lhumerus -17.6909 62.2836 7.80385
lradius 35.8885
lwrist -28.1937
lhand -0.961353 -18.9958
lfingers 7.12502
lthumb 24.6693 9.43405
rfemur -6.86746 3.68731 5.60853
rtibia -1.74931e-014
rfoot -17.3242 -12.3519
rtoes -2.06003
lfemur -18.1973 8.83295 -21.6955
ltibia 20.5188
lfoot -15.0976 0.774951
ltoes -54.1113
401
root -0.145813 18.905 6.19524 14.2526 -6.95819 4.1001
lowerback 24.9275 -3.58721 12.9924
upperback -2.45991 0.357144 6.80319
thorax -16.2569 -0.623114 0.316888
lowerneck -22.041 2.82247 3.51027
upperneck 1.08164 3.31467 -7.0416
head 3.95807 1.20129 -2.46455
rclavicle -5.40694e-014 1.33583e-013
rhumerus -33.2387 -43.5514 0.567646
rradius 40.9854
rwrist 16.3641
rhand -11.1725 -47.0877
rfingers 7.12502
rthumb 14.8543 -76.5352
lclavicle -5.40694e-014 1.33583e-013
lhumerus -17.2867 62.4325 8.2304
lradius 35.8766
lwrist -28.2586
lhand -0.840277 -19.0956
lfingers 7.12502
lthumb 24.7853 9.31834
rfemur -6.93644 4.12046 5.72888
rtibia 3.33958e-014
rfoot -17.2842 -12.4804
rtoes -2.50092
lfemur -17.9933 8.78279 -21.5044
ltibia 20.4117
lfoot -15.2228 1.18684
ltoes -54.1309
402
root -0.164566 18.9039 6.19874 14.1777 -7.39779 3.96391
lowerback 24.897 -3.59576 12.8218
upperback -2.39104 0.265914 6.74014
thorax -16.1673 -0.647047 0.365635
lowerneck -22.3748 2.93614 3.23639
upperneck 1.16489 3.5237 -6.93189
head 4.0356 1.30034 -2.36423
rclavicle -3.02153e-014 7.95139e-014
rhumerus -33.041 -43.4989 0.679244
rradius 40.98
rwrist 16.4316
rhand -10.9732 -47.1244
rfingers 7.12502
rthumb 15.0463 -76.5576
lclavicle -3.02153e-014 7.95139e-014
lhumerus -16.8605 62.9434 8.6696
lradius 35.7976
lwrist -28.7602
lhand -0.776606 -19.1237
lfingers 7.12502
lthumb 24.8463 9.28187
rfemur -6.99811 4.60492 5.85222
rtibia -1.59028e-014
rfoot -17.236 -12.6162
rtoes -2.8367
lfemur -17.7433 8.60407 -21.2871
ltibia 20.3103
lfoot -15.4398 1.74157
ltoes -54.0482
403
root -0.184975 18.9026 6.20319 14.0607 -7.80359 3.82723
lowerback 24.8788 -3.62663 12.6378
upperback -2.33105 0.138305 6.63283
thorax -16.0969 -0.688941 0.387061
lowerneck -22.5641 3.07836 3.22977
upperneck 1.16137 3.71939 -7.07262
head 4.07572 1.38299 -2.38741
rclavicle 6.36111e-015 9.54166e-015
rhumerus -32.6214 -43.6968 0.735668
rradius 40.7439
rwrist 16.7236
rhand -10.6601 -47.033
rfingers 7.12502
rthumb 15.3479 -76.4435
lclavicle 6.36111e-015 9.54166e-015
lhumerus -16.3252 63.8999 9.06268
lradius 35.5769
lwrist -29.8566
lhand -0.681036 -19.3703
lfingers 7.12502
lthumb 24.9379 9.02261
rfemur -6.99567 5.06945 5.99481
rtibia -3.18055e-015
rfoot -17.2333 -12.7162
rtoes -3.05932
lfemur -17.4455 8.46079 -21.0595
ltibia 20.2138
lfoot -15.6598 2.25893
ltoes -53.9989
404
root -0.20638 18.9024 6.20855 13.9535 -8.17036 3.72204
lowerback 24.837 -3.68058 12.4298
upperback -2.34129 -0.0298773 6.47091
thorax -16.1016 -0.753678 0.378178
lowerneck -22.5757 3.23507 3.32399
upperneck 1.19099 3.91109 -7.17571
head 4.10133 1.47046 -2.41544
rclavicle -5.08889e-014 5.08889e-014
rhumerus -31.687 -44.185 0.641249
rradius 40.0794
rwrist 17.307
rhand -10.3354 -46.9894
rfingers 7.12502
rthumb 15.6606 -76.3756
lclavicle -5.08889e-014 5.08889e-014
lhumerus -15.9142 64.4028 9.25133
lradius 35.3833
lwrist -30.5859
lhand -0.451048 -19.7525
lfingers 7.12502
lthumb 25.1583 8.60962
rfemur -6.97719 5.48653 6.1159
rtibia 9.54166e-015
rfoot -17.2232 -12.8048
rtoes -3.37571
lfemur -17.1694 8.38946 -20.8758
ltibia 20.1276
lfoot -15.8138 2.69527
ltoes -53.9492
405
root -0.22654 18.9028 6.21415 13.8296 -8.51619 3.63701
lowerback 24.7844 -3.76229 12.1738
upperback -2.41011 -0.245811 6.29277
thorax -16.1756 -0.839615 0.397044
lowerneck -22.2381 3.42308 3.52912
upperneck 1.10686 4.12273 -7.33859
head 4.04646 1.57438 -2.4799
rclavicle 2.06736e-014 -7.31528e-014
rhumerus -31.3721 -43.7585 0.528277
rradius 40.1662
rwrist 17.1727
rhand -9.94511 -47.1632
rfingers 7.12502
rthumb 16.0365 -76.5195
lclavicle 2.06736e-014 -7.31528e-014
lhumerus -15.9384 63.8893 9.08398
lradius 35.4306
lwrist -30.3042
lhand -0.276723 -19.6952
lfingers 7.12502
lthumb 25.3253 8.64338
rfemur -6.92884 5.88057 6.21322
rtibia -1.90833e-014
rfoot -17.205 -12.8632
rtoes -3.48982
lfemur -16.888 8.22646 -20.7129
ltibia 20.0559
lfoot -16.0058 3.23314
ltoes -54.0394
406
root -0.246774 18.9033 6.21857 13.68 -8.79019 3.50288
lowerback 24.7196 -3.86039 11.9578
upperback -2.46111 -0.473533 6.1278
thorax -16.2222 -0.931822 0.413299
lowerneck -21.7503 3.62106 3.92007
upperneck 0.882448 4.31828 -7.77468
head 3.93891 1.66047 -2.66363
rclavicle -1.27222e-014 -3.49861e-014
rhumerus -30.9496 -43.3118 0.389655
rradius 40.2362
rwrist 17.0931
rhand -9.55139 -47.2174
rfingers 7.12502
rthumb 16.4156 -76.5428
lclavicle -1.27222e-014 -3.49861e-014
lhumerus -15.9401 63.379 9.01111
lradius 35.5676
lwrist -29.909
lhand -0.159266 -19.3137
lfingers 7.12502
lthumb 25.4378 9.00892
rfemur -6.82958 6.22672 6.38662
rtibia -2.06736e-014
rfoot -17.1858 -12.9106
rtoes -3.39024
lfemur -16.5987 8.09115 -20.4894
ltibia 19.9896
lfoot -16.1697 3.73109
ltoes -54.2596
407
root -0.269804 18.903 6.22358 13.5251 -9.0553 3.3422
lowerback 24.6448 -3.90944 11.7268
upperback -2.4695 -0.645374 5.98072
thorax -16.2075 -0.994657 0.433622
lowerneck -21.5334 3.78756 4.11328
upperneck 0.830616 4.51644 -8.0709
head 3.91727 1.74703 -2.76951
rclavicle 1.59028e-015 -1.04958e-013
rhumerus -30.5651 -43.0796 0.410585
rradius 40.2797
rwrist 17.1144
rhand -9.214 -47.1462
rfingers 7.12502
rthumb 16.7404 -76.4444
lclavicle 1.59028e-015 -1.04958e-013
lhumerus -15.5132 64.4669 9.31462
lradius 35.3803
lwrist -30.9878
lhand 0.0250791 -19.5899
lfingers 7.12502
lthumb 25.6144 8.70741
rfemur -6.72038 6.57513 6.60867
rtibia 1.59028e-014
rfoot -17.1739 -12.9903
rtoes -3.44544
lfemur -16.2956 8.04104 -20.2242
ltibia 19.9298
lfoot -16.2952 4.07778
ltoes -54.289
408
root -0.294724 18.9021 6.23044 13.353 -9.33995 3.17649
lowerback 24.5726 -3.9024 11.4456
upperback -2.46226 -0.757181 5.84894
thorax -16.1704 -1.02544 0.4739
lowerneck -21.4537 3.92798 4.16134
upperneck 0.896896 4.7135 -8.26938
head 3.94658 1.83311 -2.82016
rclavicle 8.90555e-014 -3.49861e-014
rhumerus -30.2363 -42.8611 0.58088
rradius 40.338
rwrist 17.0945
rhand -8.8672 -47.1651
rfingers 7.12502
rthumb 17.0743 -76.4348
lclavicle 8.90555e-014 -3.49861e-014
lhumerus -14.6901 66.8039 10.0062
lradius 35.0085
lwrist -33.4222
lhand 0.326527 -20.3329
lfingers 7.12502
lthumb 25.9031 7.92255
rfemur -6.58847 6.94746 6.83973
rtibia -3.18055e-015
rfoot -17.2034 -13.0684
rtoes -3.60574
lfemur -15.9472 7.86116 -19.9316
ltibia 19.8842
lfoot -16.4894 4.49968
ltoes -54.1351
409
root -0.318305 18.9017 6.2381 13.1586 -9.57226 3.05964
lowerback 24.4691 -3.90861 11.16
upperback -2.4297 -0.900188 5.68447
thorax -16.0884 -1.06939 0.48979
lowerneck -21.4848 4.05339 4.28825
upperneck 0.981247 4.87046 -8.49648
head 3.99852 1.89503 -2.89562
rclavicle -2.06736e-014 1.20861e-013
rhumerus -29.8797 -42.5364 0.721311
rradius 40.4373
rwrist 16.9798
rhand -8.50086 -47.169
rfingers 7.12502
rthumb 17.4269 -76.4078
lclavicle -2.06736e-014 1.20861e-013
lhumerus -13.8915 68.2013 10.7172
lradius 34.8572
lwrist -34.9892
lhand 0.748002 -20.8101
lfingers 7.12502
lthumb 26.3066 7.38573
rfemur -6.40827 7.25923 7.02426
rtibia 1.74931e-014
rfoot -17.2822 -13.1104
rtoes -3.62914
lfemur -15.5861 7.54535 -19.6924
ltibia 19.8459
lfoot -16.7236 5.09432
ltoes -54.1518
